# xmcd
#
# Track frame offsets:
#	167
#	20115
#	58980
#	73580
#	93770
#	115740
#	127312
#	144232
#	165257
#	180767
#
# Disc length: 2653 seconds
#
# Revision: 0
# Processed by: cddbd v1.5.1PL0 Copyright (c) Steve Scherf et al.
# Submitted via: dBpowerAMP V4.0
#
DISCID=820a5b0a
DTITLE=Montclairs - Dreaming Out od Season
DYEAR=1973
DGENRE=R&B
TTITLE0=Prelude to a Heartbreak
TTITLE1=Do I Stand a Chance
TTITLE2=Dreaming's Out of Season
TTITLE3=Make Up for Lost Time
TTITLE4=Beggin' is Hard to Do
TTITLE5=Just Can't Get Away
TTITLE6=Unwanted Love
TTITLE7=Grand Finale
TTITLE8=Baby (You Know I'm Gonna Miss You)
TTITLE9=Baby (reprise)
EXTD=Old School rythm and Blues from the 1960's.  Lead singer Phil Perry is currently a R and B singer of some note sing soft soul  and mood music.
EXTT0=
EXTT1=
EXTT2=
EXTT3=
EXTT4=
EXTT5=
EXTT6=
EXTT7=
EXTT8=
EXTT9=
PLAYORDER=
